<svg width="1346" height="846" viewBox="0 0 1346 846" fill="none" xmlns="http://www.w3.org/2000/svg">
<g clip-path="url(#clip0_56_1116)">
<rect x="-0.0175781" y="388.998" width="90" height="480" transform="rotate(-18 -0.0175781 388.998)" fill="black"/>
<rect x="123.62" y="348.825" width="90" height="480" transform="rotate(-18 123.62 348.825)" fill="black"/>
<rect x="247.257" y="308.653" width="90" height="480" transform="rotate(-18 247.257 308.653)" fill="black"/>
<rect x="370.894" y="268.481" width="90" height="480" transform="rotate(-18 370.894 268.481)" fill="black"/>
<rect x="494.532" y="228.309" width="90" height="480" transform="rotate(-18 494.532 228.309)" fill="black"/>
<rect x="618.169" y="188.137" width="90" height="480" transform="rotate(-18 618.169 188.137)" fill="black"/>
<rect x="741.509" y="148.061" width="90" height="480" transform="rotate(-18 741.509 148.061)" fill="black"/>
<rect x="864.849" y="107.985" width="90" height="480" transform="rotate(-18 864.849 107.985)" fill="black"/>
<rect x="988.189" y="67.9098" width="90" height="480" transform="rotate(-18 988.189 67.9098)" fill="black"/>
<rect x="1111.53" y="27.8341" width="90" height="480" transform="rotate(-18 1111.53 27.8341)" fill="black"/>
</g>
<defs>
<clipPath id="clip0_56_1116">
<rect width="1259" height="480" fill="white" transform="translate(0 389.052) rotate(-18)"/>
</clipPath>
</defs>
</svg>
